<svg id="Layer_1" data-name="Layer 1" xmlns="http://www.w3.org/2000/svg" viewBox="0 0 100 170"><title>logo-sm</title><path d="M74.48,66c12-18.24,6.67-48.6-17.37-61.15C34.37-7,14.54,6.58,14.54,6.58,18.89,48.42,73.84,67,74.48,66Z" style="fill:#008c96"/><path d="M99.88,115.37C98.3,94.12,86.28,82.27,77.11,76.1,62.42,66.23,39.54,62.85,21.84,52.39,4.83,42.34.67,23,.67,23S-.17,122.78,0,127.92s11.44,41,49,42.05S101.48,136.61,99.88,115.37ZM84.07,139.23c-5.49,13.48-22.19,12.36-22.23,12.44-2,3.55-10.93,3.58-12.2,3.57s-10.22,0-12.2-3.57c0-.07-16.74,1.05-22.23-12.44C9.41,125,22,117,23.9,115.88a21.26,21.26,0,0,1-7.58-2.22s-9.87-6.09-1-16.87,18.54.35,18.71,2-.51,2.17-.69,3.83c-.13,1.23.42,1,1,1.19A17.91,17.91,0,0,1,44,100.62c4.9-.09,5.58-.09,5.58-.09v.07l0,0v-.09s.69,0,5.58.09a17.83,17.83,0,0,1,9.67,3.19c.55-.23,1.1,0,1-1.19-.17-1.65-.86-2.17-.69-3.83S75,86,83.88,96.79s-.95,16.87-.95,16.87a21.26,21.26,0,0,1-7.58,2.22C77.27,117,89.87,125,84.07,139.23Z" style="fill:#008c96"/><path d="M38.68,123.23a3.34,3.34,0,0,0,3.86-2.71,3.42,3.42,0,0,0-2-4.31,3.34,3.34,0,0,0-3.86,2.71C36.17,120.86,37.07,122.79,38.68,123.23Zm.92-4.71a1.13,1.13,0,0,1,1.1,1.16,1.14,1.14,0,0,1-1,1.29,1.13,1.13,0,0,1-1.1-1.16A1.16,1.16,0,0,1,39.6,118.52Z" style="fill:#008c96"/><path d="M58.74,116.22c-1.62.44-2.51,2.36-2,4.31a3.34,3.34,0,0,0,3.86,2.71c1.62-.44,2.51-2.36,2-4.31S60.35,115.78,58.74,116.22Zm.77,4.75a1.25,1.25,0,1,1,1.1-1.16A1.15,1.15,0,0,1,59.51,121Z" style="fill:#008c96"/><path d="M62.3,136.88a.44.44,0,0,0-.51,0,24.35,24.35,0,0,1-11.49,4.68l.32-10.6a8.57,8.57,0,0,0,2.51-.65h.3l-.17-.06a4.75,4.75,0,0,0,3.12-4.1c0-2.68-3-4.86-6.71-4.86S43,123.49,43,126.18a4.75,4.75,0,0,0,3.1,4.09l-.2.06h.35a8.3,8.3,0,0,0,2.47.64L49,141.58a24.43,24.43,0,0,1-11.49-4.68.42.42,0,0,0-.51,0c-.19.13-.24.38-.17.73l0,.11.08.08c.23.21,5.6,5.13,12.72,5.13h0c7.11,0,12.49-4.91,12.72-5.13l.08-.08,0-.11C62.54,137.24,62.48,137,62.3,136.88Z" style="fill:#008c96"/></svg>