<?xml version="1.0" encoding="utf-8"?>
<!-- Generator: Adobe Illustrator 23.0.5, SVG Export Plug-In . SVG Version: 6.00 Build 0)  -->
<svg version="1.1" id="Layer_1" xmlns="http://www.w3.org/2000/svg" xmlns:xlink="http://www.w3.org/1999/xlink" x="0px" y="0px"
	 viewBox="0 0 640 480" style="enable-background:new 0 0 640 480;" xml:space="preserve">
<style type="text/css">
	.st0{fill:#008C96;}
</style>
<g>
	<path class="st0" d="M349.8,219.84c15.22-22.83,8.46-60.85-22.03-76.56c-28.85-14.87-54,2.15-54,2.15
		C279.28,197.81,348.99,221.04,349.8,219.84z"/>
	<path class="st0" d="M382.03,281.62c-2.01-26.6-17.25-41.44-28.88-49.16c-18.63-12.36-47.66-16.59-70.12-29.68
		c-21.58-12.58-26.86-36.8-26.86-36.8s-1.07,124.92-0.81,131.36c0.27,6.45,14.51,51.31,62.19,52.65S384.05,308.22,382.03,281.62z
		 M361.97,311.5c-6.97,16.88-28.15,15.48-28.2,15.57c-2.53,4.45-13.87,4.48-15.48,4.47c-1.61,0.02-12.96-0.02-15.48-4.47
		c-0.05-0.09-21.23,1.31-28.2-15.57c-7.36-17.82,8.64-27.85,11.02-29.23c-4.78-0.25-9.61-2.78-9.61-2.78s-12.52-7.62-1.2-21.12
		c11.32-13.5,23.52,0.44,23.74,2.5s-0.65,2.72-0.87,4.79c-0.16,1.54,0.53,1.21,1.23,1.49c3.45-2.27,7.54-3.91,12.27-4
		c6.21-0.11,7.08-0.11,7.08-0.11v0.09l0.04,0.02v-0.11c0,0,0.87,0,7.08,0.11c4.73,0.08,8.82,1.73,12.27,4
		c0.7-0.29,1.39,0.05,1.23-1.49c-0.22-2.07-1.09-2.72-0.87-4.79c0.22-2.07,12.41-16.01,23.74-2.5c11.32,13.5-1.2,21.12-1.2,21.12
		s-4.83,2.53-9.61,2.78C353.34,283.64,369.33,293.67,361.97,311.5z"/>
	<path class="st0" d="M304.39,291.46c2.05,0.55,4.25-0.96,4.9-3.39s-0.49-4.83-2.54-5.39c-2.05-0.55-4.25,0.96-4.9,3.39
		C301.2,288.5,302.34,290.91,304.39,291.46z M305.56,285.57c0.72-0.05,1.35,0.6,1.4,1.45s-0.48,1.57-1.2,1.62
		c-0.72,0.05-1.35-0.6-1.4-1.45S304.84,285.61,305.56,285.57z"/>
	<path class="st0" d="M329.83,282.69c-2.05,0.55-3.19,2.96-2.54,5.39s2.84,3.94,4.9,3.39c2.05-0.55,3.19-2.96,2.54-5.39
		C334.07,283.65,331.88,282.14,329.83,282.69z M330.81,288.64c-0.72-0.05-1.26-0.77-1.2-1.62s0.69-1.5,1.4-1.45
		c0.72,0.05,1.26,0.77,1.2,1.62S331.53,288.68,330.81,288.64z"/>
	<path class="st0" d="M334.35,308.55c-0.07-0.05-0.33-0.18-0.65,0.04c-6.66,4.67-12.38,5.66-14.58,5.86l0.41-13.27
		c1.15-0.12,2.23-0.4,3.19-0.81h0.38l-0.22-0.07c2.37-1.08,3.96-2.97,3.96-5.13c0-3.36-3.81-6.08-8.51-6.08
		c-4.7,0-8.51,2.72-8.51,6.08c0,2.15,1.57,4.04,3.93,5.12l-0.26,0.08h0.44c0.94,0.41,1.99,0.68,3.13,0.8l0.41,13.28
		c-2.2-0.21-7.93-1.19-14.58-5.86c-0.32-0.22-0.58-0.09-0.65-0.04c-0.24,0.16-0.31,0.47-0.21,0.92l0.03,0.14l0.1,0.1
		c0.29,0.26,7.11,6.42,16.13,6.42c0,0,0,0,0,0s0,0,0,0c9.02,0,15.85-6.15,16.13-6.42l0.1-0.1l0.03-0.14
		C334.65,309.01,334.58,308.71,334.35,308.55z"/>
</g>
</svg>
